<svg width="36" height="37" viewBox="0 0 36 37" fill="none" xmlns="http://www.w3.org/2000/svg">
<path d="M26.1071 6.31889C28.5733 7.74278 30.6252 9.78561 32.06 12.2455C33.4948 14.7053 34.2629 17.497 34.2882 20.3447C34.3135 23.1923 33.5953 25.9972 32.2045 28.4822C30.8136 30.9672 28.7984 33.0462 26.3579 34.5137C23.9175 35.9813 21.1363 36.7865 18.2892 36.8499C15.4422 36.9133 12.6279 36.2325 10.1246 34.875C7.62124 33.5175 5.51549 31.5303 4.01548 29.1096C2.51547 26.689 1.67314 23.9188 1.57175 21.0728L1.56152 20.4899L1.57175 19.9069C1.67238 17.0857 2.50115 14.3385 3.97752 11.9323C5.45389 9.52615 7.52763 7.54284 9.99721 6.17515C12.4668 4.80747 15.2482 4.10193 18.0711 4.12712C20.894 4.1523 23.6623 4.90736 26.1071 6.31889ZM17.9253 12.308C17.3828 12.308 16.8625 12.5235 16.4789 12.9071C16.0953 13.2907 15.8798 13.811 15.8798 14.3535V20.4899L15.8941 20.7292C15.9527 21.2268 16.1919 21.6855 16.5663 22.0184C16.9407 22.3513 17.4243 22.5353 17.9253 22.5353H22.0162L22.2555 22.521C22.7531 22.4624 23.2118 22.2232 23.5447 21.8488C23.8777 21.4744 24.0616 20.9909 24.0617 20.4899L24.0473 20.2506C23.9887 19.753 23.7495 19.2943 23.3751 18.9613C23.0007 18.6284 22.5172 18.4445 22.0162 18.4444H19.9707V14.3535L19.9564 14.1142C19.8978 13.6166 19.6586 13.1579 19.2842 12.8249C18.9098 12.492 18.4263 12.3081 17.9253 12.308Z" fill="#FF7074"/>
<path d="M6.49704 0.426712C6.9177 0.114333 7.4422 -0.0247051 7.96237 0.0382729C8.48254 0.101251 8.9587 0.361442 9.29266 0.765186C9.62662 1.16893 9.79291 1.68544 9.75723 2.20818C9.72156 2.73093 9.48664 3.22006 9.10092 3.57469L8.90251 3.73832L3.27747 7.82926C2.85696 8.14654 2.33025 8.28936 1.80706 8.22796C1.28387 8.16656 0.804537 7.90568 0.468909 7.49966C0.133282 7.09364 -0.0327608 6.57378 0.00536917 6.04838C0.0434991 5.52298 0.282861 5.03254 0.673596 4.67924L0.872006 4.5156L6.49704 0.426712Z" fill="#FF7074"/>
<path d="M26.4981 0.879463C26.791 0.476559 27.2209 0.194403 27.7071 0.0859423C28.1933 -0.0225189 28.7024 0.05017 29.1388 0.290369L29.3556 0.427415L34.9806 4.51835C35.4013 4.82431 35.6896 5.27906 35.7869 5.79007C35.8842 6.30108 35.7831 6.82995 35.5042 7.26908C35.2254 7.70821 34.7897 8.0246 34.2858 8.15387C33.782 8.28315 33.2478 8.21559 32.792 7.96496L32.5751 7.82791L26.9501 3.73698C26.7329 3.5789 26.549 3.37959 26.4089 3.15044C26.2687 2.92128 26.1751 2.66677 26.1333 2.40142C26.0915 2.13608 26.1024 1.8651 26.1653 1.60396C26.2283 1.34282 26.34 1.09664 26.4981 0.879463Z" fill="#FF7074"/>
</svg>
