<svg width="133" height="133" viewBox="0 0 133 133" fill="none" xmlns="http://www.w3.org/2000/svg">
<circle cx="66.5" cy="66.5" r="66.5" fill="#EDEDED"/>
<path d="M28.8796 64.4414C27.3344 66.0202 27.3616 68.5527 28.9404 70.0979L54.6685 95.2786C56.2473 96.8238 58.7798 96.7966 60.325 95.2178C61.8702 93.639 61.843 91.1065 60.2642 89.5613L37.3948 67.1784L59.7776 44.309C61.3228 42.7302 61.2956 40.1977 59.7168 38.6525C58.138 37.1073 55.6055 37.1345 54.0603 38.7133L28.8796 64.4414ZM100.549 70.4996C102.758 70.4758 104.529 68.6658 104.505 66.4568C104.482 64.2478 102.672 62.4763 100.462 62.5001L100.549 70.4996ZM31.7813 71.239L100.549 70.4996L100.462 62.5001L31.6953 63.2395L31.7813 71.239Z" fill="white"/>
</svg>
