<svg width="133" height="133" viewBox="0 0 133 133" fill="none" xmlns="http://www.w3.org/2000/svg">
<circle cx="66.5" cy="66.5" r="66.5" fill="#00AAAD"/>
<path d="M28.8796 64.4416C27.3344 66.0204 27.3616 68.5529 28.9404 70.0981L54.6685 95.2788C56.2473 96.824 58.7798 96.7968 60.325 95.218C61.8702 93.6392 61.843 91.1066 60.2642 89.5614L37.3948 67.1786L59.7776 44.3092C61.3228 42.7304 61.2956 40.1979 59.7168 38.6527C58.138 37.1075 55.6055 37.1347 54.0603 38.7135L28.8796 64.4416ZM100.549 70.4998C102.758 70.476 104.529 68.666 104.505 66.457C104.482 64.248 102.672 62.4765 100.462 62.5002L100.549 70.4998ZM31.7813 71.2392L100.549 70.4998L100.462 62.5002L31.6953 63.2397L31.7813 71.2392Z" fill="white"/>
</svg>
