<svg width="74" height="73" viewBox="0 0 74 73" fill="none" xmlns="http://www.w3.org/2000/svg">
<path d="M3 3.64233L10.6138 4.9601L14.1388 46.9567C14.4207 50.3866 17.2868 53.0184 20.7277 53.0075H60.6598C63.9432 53.0148 66.7288 50.5989 67.1937 47.3484L70.6675 23.343C71.0555 20.6599 69.1923 18.1707 66.5129 17.7827C66.2786 17.7498 11.8364 17.7315 11.8364 17.7315" stroke="#00AAAD" stroke-width="5.90774" stroke-linecap="round" stroke-linejoin="round"/>
<path d="M44.6406 31.2616H54.7911" stroke="#00AAAD" stroke-width="5.90774" stroke-linecap="round" stroke-linejoin="round"/>
<path fill-rule="evenodd" clip-rule="evenodd" d="M19.1241 65.697C20.2259 65.697 21.1154 66.5902 21.1154 67.6883C21.1154 68.7901 20.2259 69.6833 19.1241 69.6833C18.0223 69.6833 17.1328 68.7901 17.1328 67.6883C17.1328 66.5902 18.0223 65.697 19.1241 65.697Z" fill="#4A4A4A" stroke="#00AAAD" stroke-width="5.90774" stroke-linecap="round" stroke-linejoin="round"/>
<path fill-rule="evenodd" clip-rule="evenodd" d="M60.4132 65.697C61.515 65.697 62.4081 66.5902 62.4081 67.6883C62.4081 68.7901 61.515 69.6833 60.4132 69.6833C59.3114 69.6833 58.4219 68.7901 58.4219 67.6883C58.4219 66.5902 59.3114 65.697 60.4132 65.697Z" fill="#130F26" fill-opacity="0.4" stroke="#00AAAD" stroke-width="5.90774" stroke-linecap="round" stroke-linejoin="round"/>
</svg>
