<svg width="140" height="140" viewBox="0 0 140 140" fill="none" xmlns="http://www.w3.org/2000/svg">
<g filter="url(#filter0_d_146_362)">
<circle cx="69.7437" cy="64.7437" r="54.7437" fill="white"/>
</g>
<path d="M86 71C86 58.8497 76.1503 49 64 49C51.8497 49 42 58.8497 42 71V89C42 91.2091 43.7909 93 46 93H64C76.1503 93 86 83.1503 86 71Z" fill="#00AAAD"/>
<circle cx="54" cy="73" r="3" fill="white"/>
<circle cx="64" cy="73" r="3" fill="white"/>
<circle cx="74" cy="73" r="3" fill="white"/>
<path d="M55.5 59C55.5 47.6782 64.6782 38.5 76 38.5C87.3218 38.5 96.5 47.6782 96.5 59V77C96.5 78.3807 95.3807 79.5 94 79.5H76C64.6782 79.5 55.5 70.3218 55.5 59Z" fill="white" stroke="#00AAAD" stroke-width="3"/>
<circle cx="66" cy="60" r="3" fill="#00AAAD"/>
<circle cx="76" cy="60" r="3" fill="#00AAAD"/>
<circle cx="86" cy="60" r="3" fill="#00AAAD"/>
<defs>
<filter id="filter0_d_146_362" x="0" y="0" width="139.487" height="139.487" filterUnits="userSpaceOnUse" color-interpolation-filters="sRGB">
<feFlood flood-opacity="0" result="BackgroundImageFix"/>
<feColorMatrix in="SourceAlpha" type="matrix" values="0 0 0 0 0 0 0 0 0 0 0 0 0 0 0 0 0 0 127 0" result="hardAlpha"/>
<feOffset dy="5"/>
<feGaussianBlur stdDeviation="7.5"/>
<feComposite in2="hardAlpha" operator="out"/>
<feColorMatrix type="matrix" values="0 0 0 0 0 0 0 0 0 0 0 0 0 0 0 0 0 0 0.15 0"/>
<feBlend mode="normal" in2="BackgroundImageFix" result="effect1_dropShadow_146_362"/>
<feBlend mode="normal" in="SourceGraphic" in2="effect1_dropShadow_146_362" result="shape"/>
</filter>
</defs>
</svg>
