<svg width="68" height="68" viewBox="0 0 68 68" fill="none" xmlns="http://www.w3.org/2000/svg">
<path d="M60.2949 43.7788C60.1453 43.2403 60.4744 42.4923 60.7886 41.9538C60.8846 41.7935 60.9895 41.6387 61.1027 41.4901C63.7898 37.4972 65.2271 32.7947 65.2314 27.9819C65.2763 14.1895 53.6381 3 39.2473 3C26.6965 3 16.2251 11.5417 13.7718 22.8808C13.4047 24.5614 13.2192 26.2766 13.2183 27.9968C13.2183 41.8042 24.4078 53.2929 38.7985 53.2929C41.0873 53.2929 44.1689 52.6048 45.8593 52.141C47.5497 51.6773 49.2251 51.064 49.6589 50.8994C50.1036 50.7317 50.5749 50.6456 51.0501 50.6451C51.5686 50.6431 52.0823 50.7448 52.561 50.9443L61.0429 53.9511C61.2288 54.0298 61.4254 54.0802 61.6263 54.1007C61.9437 54.1007 62.2481 53.9746 62.4725 53.7502C62.6969 53.5257 62.823 53.2213 62.823 52.9039C62.8126 52.767 62.7875 52.6316 62.7482 52.5L60.2949 43.7788Z" stroke="#00AAAD" stroke-width="5.45882" stroke-miterlimit="10" stroke-linecap="round"/>
<path d="M5.76156 30.5244C3.79956 34.0492 2.85044 38.0478 3.01914 42.0783C3.18784 46.1088 4.46777 50.0142 6.71745 53.3626C7.06301 53.8847 7.25748 54.2886 7.19765 54.5594C7.13781 54.8301 5.41301 63.8146 5.41301 63.8146C5.37153 64.0249 5.38726 64.2424 5.45857 64.4445C5.52989 64.6466 5.65416 64.8259 5.81841 64.9635C6.03757 65.1381 6.31009 65.2321 6.5903 65.2298C6.74004 65.2302 6.88825 65.1996 7.02562 65.14L15.4342 61.849C16.0129 61.6209 16.6585 61.6316 17.2293 61.8789C20.0626 62.9829 23.195 63.674 26.329 63.674C30.5344 63.6785 34.666 62.5693 38.3038 60.4593" stroke="#00AAAD" stroke-width="5.45882" stroke-miterlimit="10" stroke-linecap="round"/>
</svg>
