<svg width="61" height="61" viewBox="0 0 61 61" fill="none" xmlns="http://www.w3.org/2000/svg">
<path id="Vector" d="M61 30.5C61 38.5891 57.7866 46.3469 52.0668 52.0668C46.3469 57.7866 38.5891 61 30.5 61C22.4109 61 14.6531 57.7866 8.93324 52.0668C3.21338 46.3469 0 38.5891 0 30.5C0 22.4109 3.21338 14.6531 8.93324 8.93324C14.6531 3.21338 22.4109 0 30.5 0C38.5891 0 46.3469 3.21338 52.0668 8.93324C57.7866 14.6531 61 22.4109 61 30.5ZM45.8644 18.9481C45.592 18.6767 45.2678 18.4631 44.911 18.3199C44.5542 18.1767 44.1722 18.1069 43.7878 18.1148C43.4034 18.1226 43.0246 18.2079 42.6739 18.3655C42.3232 18.5231 42.0079 18.7498 41.7469 19.032L28.5061 35.9023L20.5265 27.9189C19.9845 27.4139 19.2675 27.1389 18.5268 27.152C17.786 27.165 17.0792 27.4651 16.5553 27.989C16.0314 28.5129 15.7313 29.2197 15.7183 29.9604C15.7052 30.7012 15.9802 31.4181 16.4853 31.9602L26.5731 42.0519C26.8449 42.3231 27.1685 42.5369 27.5247 42.6804C27.8808 42.8239 28.2622 42.8941 28.6462 42.887C29.0301 42.8799 29.4086 42.7956 29.7592 42.639C30.1098 42.4824 30.4253 42.2568 30.6868 41.9756L45.9063 22.9513C46.4252 22.4118 46.7118 21.6904 46.7047 20.9419C46.6975 20.1934 46.3972 19.4776 45.8682 18.9481H45.8644Z" fill="#00AAAD"/>
</svg>
