<svg width="97" height="97" viewBox="0 0 97 97" fill="none" xmlns="http://www.w3.org/2000/svg">
<path d="M32.0259 64.0498L40.0322 40.0309L64.051 32.0247L56.0447 56.0435L32.0259 64.0498Z" stroke="#00AAAD" stroke-width="5.45882" stroke-linecap="round" stroke-linejoin="round"/>
<path d="M12.0095 48.0378C12.0095 52.7691 12.9414 57.454 14.752 61.8252C16.5626 66.1963 19.2164 70.168 22.5619 73.5136C25.9075 76.8591 29.8792 79.5129 34.2503 81.3235C38.6215 83.1341 43.3065 84.066 48.0378 84.066C52.7691 84.066 57.454 83.1341 61.8252 81.3235C66.1963 79.5129 70.168 76.8591 73.5136 73.5136C76.8591 70.168 79.5129 66.1963 81.3235 61.8252C83.1341 57.454 84.066 52.7691 84.066 48.0378C84.066 43.3065 83.1341 38.6215 81.3235 34.2503C79.5129 29.8792 76.8591 25.9075 73.5136 22.5619C70.168 19.2164 66.1963 16.5626 61.8252 14.752C57.454 12.9414 52.7691 12.0095 48.0378 12.0095C43.3065 12.0095 38.6215 12.9414 34.2503 14.752C29.8792 16.5626 25.9075 19.2164 22.5619 22.5619C19.2164 25.9075 16.5626 29.8792 14.752 34.2503C12.9414 38.6215 12.0095 43.3065 12.0095 48.0378Z" stroke="#00AAAD" stroke-width="5.45882" stroke-linecap="round" stroke-linejoin="round"/>
<path d="M48.0376 12.0095V20.0158" stroke="#00AAAD" stroke-width="5.45882" stroke-linecap="round" stroke-linejoin="round"/>
<path d="M48.0376 76.0601V84.0663" stroke="#00AAAD" stroke-width="5.45882" stroke-linecap="round" stroke-linejoin="round"/>
<path d="M12.0095 48.0376H20.0158" stroke="#00AAAD" stroke-width="5.45882" stroke-linecap="round" stroke-linejoin="round"/>
<path d="M76.0588 48.0376H84.0651" stroke="#00AAAD" stroke-width="5.45882" stroke-linecap="round" stroke-linejoin="round"/>
</svg>
