<svg width="44" height="44" viewBox="0 0 44 44" fill="none" xmlns="http://www.w3.org/2000/svg">
<path d="M9 11.3336H6.66667C5.42899 11.3336 4.242 11.8253 3.36683 12.7004C2.49167 13.5756 2 14.7626 2 16.0003V37.0003C2 38.2379 2.49167 39.4249 3.36683 40.3001C4.242 41.1753 5.42899 41.6669 6.66667 41.6669H27.6667C28.9043 41.6669 30.0913 41.1753 30.9665 40.3001C31.8417 39.4249 32.3333 38.2379 32.3333 37.0003V34.6669" stroke="#E0E0E0" stroke-width="4" stroke-linecap="round" stroke-linejoin="round"/>
<path d="M40.232 10.3653C41.151 9.44628 41.6672 8.19988 41.6672 6.90025C41.6672 5.60062 41.151 4.35423 40.232 3.43525C39.313 2.51627 38.0666 2 36.767 2C35.4674 2 34.221 2.51627 33.302 3.43525L13.667 23.0003V30.0003H20.667L40.232 10.3653Z" stroke="#E0E0E0" stroke-width="4" stroke-linecap="round" stroke-linejoin="round"/>
<path d="M30 6.6669L37 13.6669" stroke="#E0E0E0" stroke-width="4" stroke-linecap="round" stroke-linejoin="round"/>
</svg>
