<svg width="59" height="75" viewBox="0 0 59 75" fill="none" xmlns="http://www.w3.org/2000/svg">
<path d="M56.0769 31.7362V64.0385C56.0769 66.15 55.2381 68.175 53.745 69.6681C52.252 71.1612 50.2269 72 48.1154 72H10.9615C8.85001 72 6.82496 71.1612 5.33188 69.6681C3.8388 68.175 3 66.15 3 64.0385V10.9615C3 8.85001 3.8388 6.82496 5.33188 5.33188C6.82496 3.8388 8.85001 3 10.9615 3H27.3407C28.7479 3.00021 30.0975 3.55923 31.0926 4.55416L54.5228 27.9843C55.5177 28.9795 56.0767 30.329 56.0769 31.7362Z" stroke="#00AAAD" stroke-width="5" stroke-linejoin="round"/>
<path d="M29.5388 4.32788V24.2317C29.5388 25.6394 30.098 26.9894 31.0934 27.9848C32.0887 28.9802 33.4388 29.5394 34.8465 29.5394H54.7503M16.2695 42.8087H42.808M16.2695 56.0779H42.808" stroke="#00AAAD" stroke-width="5" stroke-linecap="round" stroke-linejoin="round"/>
</svg>
