<svg width="59" height="72" viewBox="0 0 59 72" fill="none" xmlns="http://www.w3.org/2000/svg">
<path d="M29.332 39.207C34.7858 39.207 39.207 34.7858 39.207 29.332C39.207 23.8782 34.7858 19.457 29.332 19.457C23.8782 19.457 19.457 23.8782 19.457 29.332C19.457 34.7858 23.8782 39.207 29.332 39.207Z" stroke="#00AAAD" stroke-width="5.45882" stroke-linecap="round" stroke-linejoin="round"/>
<path d="M29.3333 3C22.3493 3 15.6513 5.7744 10.7129 10.7129C5.7744 15.6513 3 22.3493 3 29.3333C3 35.5612 4.32325 39.6363 7.9375 44.1458L29.3333 68.8333L50.7292 44.1458C54.3434 39.6363 55.6667 35.5612 55.6667 29.3333C55.6667 22.3493 52.8923 15.6513 47.9538 10.7129C43.0154 5.7744 36.3174 3 29.3333 3Z" stroke="#00AAAD" stroke-width="5.45882" stroke-linecap="round" stroke-linejoin="round"/>
</svg>
