<svg width="75" height="75" viewBox="0 0 75 75" fill="none" xmlns="http://www.w3.org/2000/svg">
<mask id="mask0_30_195" style="mask-type:luminance" maskUnits="userSpaceOnUse" x="0" y="0" width="75" height="75">
<path d="M0 0H75V75H0V0Z" fill="white"/>
</mask>
<g mask="url(#mask0_30_195)">
<path fill-rule="evenodd" clip-rule="evenodd" d="M7.68062 28.125C6.75109 31.0845 6.25 34.2337 6.25 37.5C6.25 39.6403 6.46519 41.7306 6.87513 43.75H22.0744C21.943 41.7147 21.875 39.6259 21.875 37.5C21.875 34.2703 22.032 31.1266 22.3297 28.125H7.68062ZM10.4307 21.875H23.1868C23.8266 18.2758 24.6844 14.9849 25.7243 12.1252C26.2773 10.6045 26.8944 9.17053 27.5776 7.85819C20.2987 10.2937 14.2137 15.3352 10.4307 21.875ZM37.5 0C16.7893 0 0 16.7893 0 37.5C0 58.2106 16.7893 75 37.5 75C58.2106 75 75 58.2106 75 37.5C75 16.7893 58.2106 0 37.5 0ZM37.5 6.25C37.0275 6.25 36.1734 6.50353 35.0041 7.86363C33.8434 9.21353 32.6566 11.3498 31.5981 14.2612C30.7937 16.4731 30.0975 19.0371 29.5441 21.875H45.4559C44.9025 19.0371 44.2062 16.4731 43.4019 14.2612C42.3434 11.3498 41.1566 9.21353 39.9959 7.86363C38.8266 6.50353 37.9725 6.25 37.5 6.25ZM51.8131 21.875C51.1734 18.2758 50.3156 14.9849 49.2756 12.1252C48.7228 10.6045 48.1056 9.17053 47.4225 7.85816C54.7013 10.2937 60.7863 15.3352 64.5694 21.875H51.8131ZM46.3875 28.125H28.6126C28.2968 31.0809 28.125 34.2269 28.125 37.5C28.125 39.6437 28.1987 41.7331 28.3383 43.75H46.6616C46.8013 41.7331 46.875 39.6437 46.875 37.5C46.875 34.2269 46.7031 31.0809 46.3875 28.125ZM52.9256 43.75C53.0569 41.7147 53.125 39.6259 53.125 37.5C53.125 34.2703 52.9681 31.1266 52.6703 28.125H67.3194C68.2487 31.0845 68.75 34.2337 68.75 37.5C68.75 39.6403 68.5347 41.7306 68.125 43.75H52.9256ZM45.9903 50H29.0098C29.6165 54.0966 30.5079 57.7409 31.5981 60.7387C32.6566 63.6503 33.8434 65.7866 35.0041 67.1363C36.1734 68.4966 37.0275 68.75 37.5 68.75C37.9725 68.75 38.8266 68.4966 39.9959 67.1363C41.1566 65.7866 42.3434 63.6503 43.4019 60.7387C44.4922 57.7409 45.3834 54.0966 45.9903 50ZM47.4225 67.1419C48.1056 65.8294 48.7228 64.3956 49.2756 62.8747C50.6097 59.2062 51.6441 54.8281 52.3031 50H66.1497C62.6328 58.0497 55.8228 64.3312 47.4225 67.1419ZM27.5776 67.1419C26.8944 65.8294 26.2773 64.3956 25.7243 62.8747C24.3903 59.2062 23.356 54.8281 22.697 50H8.85028C12.3673 58.0497 19.1773 64.3312 27.5776 67.1419Z" fill="#00AAAD"/>
</g>
</svg>
