<svg width="64" height="68" viewBox="0 0 64 68" fill="none" xmlns="http://www.w3.org/2000/svg">
<path d="M27.0184 45.4512H27.0105L27.0027 45.4512C23.0205 45.4761 19.7751 48.6931 19.7751 52.6901V60.4727H19.655L19.6551 62.9728C19.6551 63.3888 19.488 63.7914 19.1849 64.0901L20.9398 65.8706L19.1849 64.0901C18.8812 64.3894 18.466 64.5592 18.0304 64.556L18.0213 64.556H18.0122H11.5879C6.55175 64.556 2.5 60.5075 2.5 55.5514V26.4047C2.54881 24.6717 3.37702 23.0453 4.76688 21.9757L4.78586 21.9611L4.80456 21.9461L26.6594 4.4508L26.6911 4.42545L26.7219 4.39908C29.6006 1.9372 33.8434 1.86051 36.8109 4.21812L36.8115 4.21859L59.1233 21.9338C60.4449 23.0408 61.2032 24.6656 61.2033 26.3726V55.5812C61.2033 57.9596 60.2502 60.244 58.5484 61.9292C56.846 63.615 54.534 64.5622 52.1218 64.556H52.1154H45.5522C44.636 64.5458 43.9281 63.8104 43.9281 62.943V62.9429V52.6901C43.9281 48.6752 40.6548 45.4512 36.6549 45.4512H27.0184Z" stroke="#00AAAD" stroke-width="5"/>
</svg>
