<svg width="60" height="60" viewBox="0 0 60 60" fill="none" xmlns="http://www.w3.org/2000/svg">
<path d="M29.9996 0.00583471C13.7858 -0.313859 0.369226 12.5437 -0.000976562 28.7564C0.0413289 37.0092 3.69566 44.8298 9.99918 50.1567V58.7569C9.99918 59.4473 10.5589 60.007 11.2492 60.007C11.4835 60.007 11.7131 59.9411 11.9117 59.817L18.8794 55.4645C22.4293 56.8223 26.1989 57.5146 29.9996 57.507C46.2134 57.8267 59.63 44.9691 60.0002 28.7565C59.63 12.5437 46.2134 -0.313859 29.9996 0.00583471Z" fill="#2196F3"/>
<path d="M49.7501 20.5062C49.3781 20.0077 48.6962 19.8585 48.1501 20.1562L35.1498 27.2438L27.0622 20.3087C26.5663 19.8835 25.8266 19.9117 25.3647 20.3737L10.3644 35.374C9.87776 35.8636 9.8801 36.6551 10.3698 37.1418C10.7614 37.531 11.3617 37.6172 11.847 37.354L24.8472 30.2664L32.9423 37.204C33.4383 37.6292 34.178 37.6009 34.6398 37.139L49.6401 22.1387C50.0772 21.6975 50.1241 21.0022 49.7501 20.5062Z" fill="#FAFAFA"/>
</svg>
