<svg width="71" height="44" viewBox="0 0 71 44" fill="none" xmlns="http://www.w3.org/2000/svg">
<path d="M0 0H5.4375V43.5H0V0Z" fill="#00AAAD"/>
<path d="M8.15625 0H10.875V29.9062H8.15625V0Z" fill="#00AAAD"/>
<path d="M13.5938 0H19.0312V29.9062H13.5938V0Z" fill="#00AAAD"/>
<path d="M57.0938 0H62.5312V29.9062H57.0938V0Z" fill="#00AAAD"/>
<path d="M21.75 0H29.9062V29.9062H21.75V0Z" fill="#00AAAD"/>
<path d="M65.25 0H70.6875V43.5H65.25V0Z" fill="#00AAAD"/>
<path d="M32.625 0H35.3438V29.9062H32.625V0Z" fill="#00AAAD"/>
<path d="M38.0625 0H43.5V29.9062H38.0625V0Z" fill="#00AAAD"/>
<path d="M46.2188 0H48.9375V29.9062H46.2188V0Z" fill="#00AAAD"/>
<path d="M51.6562 0H54.375V29.9062H51.6562V0Z" fill="#00AAAD"/>
<path d="M12.2344 32.625H8.15625V35.3438H10.875V43.5H13.5938V33.9844C13.5938 33.6238 13.4505 33.2781 13.1956 33.0232C12.9407 32.7682 12.5949 32.625 12.2344 32.625Z" fill="#404040"/>
<path d="M19.0312 32.625C17.9497 32.625 16.9124 33.0547 16.1476 33.8195C15.3828 34.5843 14.9531 35.6215 14.9531 36.7031V39.4219C14.9531 40.5035 15.3828 41.5407 16.1476 42.3055C16.9124 43.0703 17.9497 43.5 19.0312 43.5C20.1128 43.5 21.1501 43.0703 21.9149 42.3055C22.6797 41.5407 23.1094 40.5035 23.1094 39.4219V36.7031C23.1094 35.6215 22.6797 34.5843 21.9149 33.8195C21.1501 33.0547 20.1128 32.625 19.0312 32.625ZM20.3906 39.4219C20.3906 39.7824 20.2474 40.1282 19.9925 40.3831C19.7375 40.638 19.3918 40.7812 19.0312 40.7812C18.6707 40.7812 18.325 40.638 18.07 40.3831C17.8151 40.1282 17.6719 39.7824 17.6719 39.4219V36.7031C17.6719 36.3426 17.8151 35.9968 18.07 35.7419C18.325 35.487 18.6707 35.3438 19.0312 35.3438C19.3918 35.3438 19.7375 35.487 19.9925 35.7419C20.2474 35.9968 20.3906 36.3426 20.3906 36.7031V39.4219Z" fill="#404040"/>
<path d="M29.9062 32.625H24.4688V35.3438H27.7081C26.4744 37.8859 25.8317 40.6743 25.8281 43.5H28.5469C28.5497 41.0295 29.1248 38.5933 30.2271 36.3823L31.1229 34.592C31.2265 34.3847 31.2754 34.1544 31.2649 33.9229C31.2544 33.6914 31.1849 33.4664 31.063 33.2693C30.9411 33.0722 30.7708 32.9096 30.5684 32.7968C30.3659 32.684 30.138 32.6249 29.9062 32.625Z" fill="#404040"/>
<path d="M43.5 32.625H39.4219V35.3438H42.1406V43.5H44.8594V33.9844C44.8594 33.6238 44.7162 33.2781 44.4612 33.0232C44.2063 32.7682 43.8605 32.625 43.5 32.625Z" fill="#404040"/>
<path d="M36.7031 32.625H32.625V35.3438H35.3438V43.5H38.0625V33.9844C38.0625 33.6238 37.9193 33.2781 37.6643 33.0232C37.4094 32.7682 37.0637 32.625 36.7031 32.625Z" fill="#404040"/>
<path d="M50.2969 32.625C49.2153 32.625 48.178 33.0547 47.4132 33.8195C46.6484 34.5843 46.2188 35.6215 46.2188 36.7031V39.4219C46.2188 40.5035 46.6484 41.5407 47.4132 42.3055C48.178 43.0703 49.2153 43.5 50.2969 43.5C51.3785 43.5 52.4157 43.0703 53.1805 42.3055C53.9453 41.5407 54.375 40.5035 54.375 39.4219V36.7031C54.375 35.6215 53.9453 34.5843 53.1805 33.8195C52.4157 33.0547 51.3785 32.625 50.2969 32.625ZM51.6562 39.4219C51.6562 39.7824 51.513 40.1282 51.2581 40.3831C51.0032 40.638 50.6574 40.7812 50.2969 40.7812C49.9363 40.7812 49.5906 40.638 49.3357 40.3831C49.0807 40.1282 48.9375 39.7824 48.9375 39.4219V36.7031C48.9375 36.3426 49.0807 35.9968 49.3357 35.7419C49.5906 35.487 49.9363 35.3438 50.2969 35.3438C50.6574 35.3438 51.0032 35.487 51.2581 35.7419C51.513 35.9968 51.6562 36.3426 51.6562 36.7031V39.4219Z" fill="#404040"/>
<path d="M61.1719 32.625H55.7344V35.3438H58.9738C57.7401 37.8859 57.0974 40.6743 57.0938 43.5H59.8125C59.8154 41.0295 60.3904 38.5933 61.4927 36.3823L62.3885 34.592C62.4921 34.3847 62.541 34.1544 62.5305 33.9229C62.52 33.6914 62.4505 33.4664 62.3286 33.2693C62.2067 33.0722 62.0364 32.9096 61.834 32.7968C61.6315 32.684 61.4036 32.6249 61.1719 32.625Z" fill="#404040"/>
</svg>
