<svg width="24" height="24" viewBox="0 0 84 73" fill="none" xmlns="http://www.w3.org/2000/svg">
<path fill-rule="evenodd" clip-rule="evenodd" d="M10.4032 5.86849C9.20055 5.86849 8.04712 6.34626 7.19669 7.19669C6.34626 8.04712 5.86849 9.20055 5.86849 10.4032V16.5385C5.86849 18.159 4.55479 19.4727 2.93425 19.4727C1.31371 19.4727 0 18.159 0 16.5385V10.4032C0 7.64413 1.09605 4.99802 3.04704 3.04704C4.99802 1.09605 7.64413 0 10.4032 0H16.5385C18.159 0 19.4727 1.31371 19.4727 2.93425C19.4727 4.55479 18.159 5.86849 16.5385 5.86849H10.4032ZM64.0199 2.93425C64.0199 1.31371 65.3336 0 66.9542 0H73.0894C75.8485 0 78.4946 1.09605 80.4456 3.04704C82.3966 4.99802 83.4927 7.64412 83.4927 10.4032V16.5385C83.4927 18.159 82.1789 19.4727 80.5584 19.4727C78.9379 19.4727 77.6242 18.159 77.6242 16.5385V10.4032C77.6242 9.20055 77.1464 8.04712 76.296 7.19669C75.4455 6.34626 74.2921 5.86849 73.0894 5.86849H66.9542C65.3336 5.86849 64.0199 4.55479 64.0199 2.93425ZM2.93425 53.0832C4.55479 53.0832 5.86849 54.3969 5.86849 56.0174V62.1527C5.86849 63.3554 6.34626 64.5088 7.19669 65.3592C8.04712 66.2096 9.20055 66.6874 10.4032 66.6874H16.5385C18.159 66.6874 19.4727 68.0011 19.4727 69.6217C19.4727 71.2422 18.159 72.5559 16.5385 72.5559H10.4032C7.64413 72.5559 4.99802 71.4598 3.04704 69.5089C1.09605 67.5579 0 64.9118 0 62.1527V56.0174C0 54.3969 1.31371 53.0832 2.93425 53.0832ZM80.5584 53.0832C82.1789 53.0832 83.4927 54.3969 83.4927 56.0174V62.1527C83.4927 64.9118 82.3966 67.5579 80.4456 69.5089C78.4946 71.4598 75.8485 72.5559 73.0894 72.5559H66.9542C65.3336 72.5559 64.0199 71.2422 64.0199 69.6217C64.0199 68.0011 65.3336 66.6874 66.9542 66.6874H73.0894C74.2921 66.6874 75.4455 66.2096 76.296 65.3592C77.1464 64.5088 77.6242 63.3554 77.6242 62.1527V56.0174C77.6242 54.3969 78.9379 53.0832 80.5584 53.0832Z" fill="#A4A4A4"/>
<path d="M11.7368 52.6164C11.7368 54.5973 12.5237 56.4971 13.9244 57.8978C15.3251 59.2985 17.2249 60.0854 19.2058 60.0854H64.0198C66.0007 60.0854 67.9004 59.2985 69.3011 57.8978C70.7018 56.4971 71.4887 54.5973 71.4887 52.6164V32.0767H11.7368V52.6164ZM20.5396 42.4799C20.5396 41.4187 20.9611 40.401 21.7115 39.6506C22.4619 38.9002 23.4796 38.4787 24.5408 38.4787H30.9428C32.004 38.4787 33.0217 38.9002 33.7721 39.6506C34.5225 40.401 34.944 41.4187 34.944 42.4799V45.1474C34.944 46.2086 34.5225 47.2263 33.7721 47.9767C33.0217 48.7271 32.004 49.1487 30.9428 49.1487H24.5408C23.4796 49.1487 22.4619 48.7271 21.7115 47.9767C20.9611 47.2263 20.5396 46.2086 20.5396 45.1474V42.4799ZM64.0198 13.1375H19.2058C17.2249 13.1375 15.3251 13.9244 13.9244 15.3251C12.5237 16.7258 11.7368 18.6255 11.7368 20.6064V24.0742H71.4887V20.6064C71.4887 18.6255 70.7018 16.7258 69.3011 15.3251C67.9004 13.9244 66.0007 13.1375 64.0198 13.1375Z" fill="#A4A4A4"/>
</svg>
