<svg width="51" height="50" viewBox="0 0 51 50" fill="none" xmlns="http://www.w3.org/2000/svg">
<path d="M40.1624 49.8651C37.9781 49.8651 34.9097 49.0793 30.3149 46.5259C24.7275 43.4092 20.4058 40.5319 14.8487 35.0188C9.49075 29.6927 6.88339 26.2444 3.23422 19.6393C-0.888314 12.1817 -0.185559 8.27252 0.600005 6.60178C1.53552 4.60491 2.91641 3.41057 4.70127 2.22513C5.71506 1.56445 6.78791 0.998091 7.90619 0.533247C8.0181 0.485385 8.12217 0.439748 8.21505 0.398564C8.76897 0.150347 9.60825 -0.224763 10.6713 0.175948C11.3808 0.440861 12.0142 0.982933 13.0056 1.95688C15.0389 3.95153 17.8175 8.39384 18.8425 10.5755C19.5307 12.0459 19.9862 13.0165 19.9873 14.1051C19.9873 15.3796 19.3427 16.3624 18.5605 17.4232C18.4139 17.6224 18.2685 17.8128 18.1275 17.9975C17.2759 19.1106 17.089 19.4323 17.2121 20.0066C17.4616 21.1609 19.3226 24.597 22.3809 27.6324C25.4393 30.6678 28.7941 32.4019 29.959 32.649C30.5611 32.7771 30.8912 32.5834 32.046 31.7063C32.2117 31.5805 32.3818 31.4503 32.5597 31.32C33.7526 30.4374 34.6948 29.8129 35.9459 29.8129H35.9526C37.0414 29.8129 37.9736 30.2826 39.5179 31.0573C41.5321 32.068 46.1325 34.7962 48.1501 36.8209C49.1315 37.8049 49.6787 38.4326 49.9462 39.1372C50.349 40.198 49.9697 41.0295 49.7223 41.586C49.6809 41.6784 49.6351 41.7797 49.5869 41.8921C49.1159 43.0025 48.5432 44.0673 47.8759 45.0733C46.6864 46.8431 45.4812 48.2133 43.4692 49.145C42.436 49.631 41.3053 49.8773 40.1624 49.8651Z" fill="#00AAAD"/>
</svg>
