<svg width="63" height="65" viewBox="0 0 63 65" fill="none" xmlns="http://www.w3.org/2000/svg">
<path fill-rule="evenodd" clip-rule="evenodd" d="M25.9604 6.49999C20.5838 6.49999 16.2252 10.8652 16.2252 16.25C16.2252 21.6347 20.5838 25.9999 25.9604 25.9999C31.3371 25.9999 35.6955 21.6347 35.6955 16.25C35.6955 10.8652 31.3371 6.49999 25.9604 6.49999ZM9.73514 16.25C9.73514 7.27537 16.9994 0 25.9604 0C34.9213 0 42.1856 7.27537 42.1856 16.25C42.1856 25.2246 34.9213 32.4999 25.9604 32.4999C16.9994 32.4999 9.73514 25.2246 9.73514 16.25ZM49.6262 36.7018C52.6856 33.6378 57.646 33.6378 60.7054 36.7018C63.7649 39.7659 63.7649 44.7339 60.7054 47.798L47.2145 61.3098C47.1866 61.3374 47.158 61.3664 47.1285 61.3956C46.8069 61.719 46.4019 62.1265 45.921 62.4623C45.503 62.7541 45.0523 62.9959 44.5782 63.1821C44.0321 63.3966 43.469 63.5081 43.0222 63.5968C42.9813 63.605 42.9417 63.6128 42.9031 63.6206L36.3319 64.9368C35.2682 65.15 34.1681 64.8162 33.401 64.0479C32.6338 63.2796 32.3006 62.1779 32.5134 61.1125L33.8277 54.5313C33.8355 54.4926 33.8433 54.453 33.8514 54.412C33.94 53.9645 34.0513 53.4006 34.2654 52.8537C34.4514 52.3788 34.6928 51.9274 34.9842 51.5088C35.3197 51.0272 35.7264 50.6216 36.0492 50.2995C36.0784 50.2699 36.1073 50.2413 36.1349 50.2134L49.6262 36.7018ZM56.1163 41.298C55.5912 40.7721 54.7404 40.7721 54.2153 41.298L40.7244 54.8098C40.5027 55.0315 40.3937 55.1413 40.3171 55.2236C40.3152 55.2255 40.3135 55.2275 40.3116 55.2294C40.311 55.232 40.3103 55.2346 40.3097 55.2372C40.284 55.3467 40.2532 55.4982 40.1919 55.8063L39.8323 57.6068L41.6301 57.2467C41.9377 57.1853 42.0889 57.1544 42.1983 57.1287L42.2061 57.1268C42.208 57.1248 42.21 57.1232 42.2119 57.1212C42.294 57.0445 42.4037 56.9353 42.625 56.7134L56.1163 43.2018C56.6413 42.676 56.6413 41.8238 56.1163 41.298ZM25.9604 42.2499C15.2072 42.2499 6.4901 50.9804 6.4901 61.7499C6.4901 63.5448 5.03722 64.9999 3.24505 64.9999C1.45287 64.9999 0 63.5448 0 61.7499C0 47.3904 11.6229 35.7499 25.9604 35.7499C28.5324 35.7499 31.0223 36.1256 33.376 36.827C35.0939 37.3392 36.0719 39.1488 35.5609 40.869C35.0494 42.5895 33.2426 43.5691 31.525 43.0569C29.7655 42.5327 27.899 42.2499 25.9604 42.2499Z" fill="#FF7074"/>
</svg>
