<svg width="64" height="64" viewBox="0 0 64 64" fill="none" xmlns="http://www.w3.org/2000/svg">
<path d="M32 3C26.2643 3 20.6575 4.70082 15.8885 7.88738C11.1194 11.0739 7.40245 15.6031 5.20751 20.9022C3.01257 26.2012 2.43827 32.0322 3.55724 37.6576C4.67621 43.2831 7.43819 48.4504 11.4939 52.5061C15.5496 56.5618 20.7169 59.3238 26.3424 60.4428C31.9678 61.5617 37.7988 60.9874 43.0978 58.7925C48.3969 56.5976 52.9261 52.8806 56.1126 48.1115C59.2992 43.3425 61 37.7357 61 32C61 24.3087 57.9447 16.9325 52.5061 11.4939C47.0675 6.05535 39.6913 3 32 3Z" stroke="#00AAAD" stroke-width="5" stroke-miterlimit="10"/>
<path d="M22.7729 23.1501C22.7729 23.1501 22.9114 20.2666 25.9976 17.7835C27.8282 16.3087 30.0229 15.882 32.0002 15.8523C33.8012 15.8293 35.4094 16.1275 36.3716 16.5856C38.0194 17.3699 41.2275 19.2845 41.2275 23.3561C41.2275 27.6402 38.4264 29.5861 35.2347 31.7265C32.0431 33.8669 31.1764 36.1902 31.1764 38.591" stroke="#00AAAD" stroke-width="5" stroke-miterlimit="10" stroke-linecap="round"/>
<path d="M31.0115 50.4549C32.8315 50.4549 34.307 48.9795 34.307 47.1595C34.307 45.3394 32.8315 43.864 31.0115 43.864C29.1915 43.864 27.7161 45.3394 27.7161 47.1595C27.7161 48.9795 29.1915 50.4549 31.0115 50.4549Z" fill="#00AAAD"/>
</svg>
