<svg width="80" height="80" viewBox="0 0 80 80" fill="none" xmlns="http://www.w3.org/2000/svg">
<path d="M37.9012 7.84385C38.8864 6.32168 41.1136 6.32168 42.0988 7.84385L46.1308 14.0735C47.8225 16.6874 50.9532 17.9842 53.9977 17.3321L61.2538 15.7781C63.0267 15.3984 64.6016 16.9733 64.2219 18.7462L62.6679 26.0023C62.0158 29.0468 63.3126 32.1775 65.9265 33.8693L72.1562 37.9012C73.6783 38.8864 73.6783 41.1136 72.1561 42.0988L65.9265 46.1308C63.3126 47.8225 62.0159 50.9532 62.6679 53.9977L64.2219 61.2538C64.6016 63.0267 63.0267 64.6016 61.2538 64.2219L53.9977 62.6679C50.9532 62.0159 47.8225 63.3126 46.1307 65.9265L42.0988 72.1562C41.1136 73.6783 38.8864 73.6783 37.9012 72.1561L33.8693 65.9265C32.1775 63.3126 29.0468 62.0159 26.0023 62.6679L18.7462 64.2219C16.9733 64.6016 15.3984 63.0268 15.7781 61.2538L17.3321 53.9977C17.9842 50.9532 16.6874 47.8225 14.0735 46.1307L7.84385 42.0988C6.32168 41.1136 6.32168 38.8864 7.84385 37.9012L14.0735 33.8693C16.6874 32.1775 17.9842 29.0468 17.3321 26.0023L15.7781 18.7462C15.3984 16.9733 16.9733 15.3984 18.7462 15.7781L26.0023 17.3321C29.0468 17.9842 32.1775 16.6874 33.8693 14.0735L37.9012 7.84385Z" stroke="#00AAAD" stroke-width="5"/>
<path d="M32.0355 39.896C30.1582 39.896 28.6755 39.3307 27.5875 38.2C26.6915 37.24 26.2435 36.088 26.2435 34.744C26.2435 33.272 26.6808 32.0667 27.5555 31.128C28.5582 29.9973 30.0515 29.432 32.0355 29.432C33.9768 29.432 35.4915 29.9973 36.5795 31.128C37.4755 32.0667 37.9235 33.24 37.9235 34.648C37.9235 36.056 37.4648 37.24 36.5475 38.2C35.4595 39.3307 33.9555 39.896 32.0355 39.896ZM31.9395 51L44.2915 29.656H47.0755L34.6915 51H31.9395ZM32.0995 32.248C31.3742 32.248 30.7875 32.4933 30.3395 32.984C29.9128 33.4533 29.6995 34.008 29.6995 34.648C29.6995 35.3733 29.9768 35.9813 30.5315 36.472C30.9582 36.856 31.4808 37.048 32.0995 37.048C32.7395 37.048 33.3048 36.824 33.7955 36.376C34.2648 35.9067 34.4995 35.3307 34.4995 34.648C34.4995 33.944 34.2435 33.3467 33.7315 32.856C33.3048 32.4507 32.7608 32.248 32.0995 32.248ZM46.9475 43.608C46.2222 43.608 45.6355 43.8533 45.1875 44.344C44.7608 44.8133 44.5475 45.368 44.5475 46.008C44.5475 46.7333 44.8248 47.3413 45.3795 47.832C45.8062 48.216 46.3288 48.408 46.9475 48.408C47.5875 48.408 48.1528 48.184 48.6435 47.736C49.1128 47.2667 49.3475 46.6907 49.3475 46.008C49.3475 45.2827 49.0915 44.6853 48.5795 44.216C48.1528 43.8107 47.6088 43.608 46.9475 43.608ZM46.8835 51.256C45.0062 51.256 43.5235 50.6907 42.4355 49.56C41.5395 48.6 41.0915 47.448 41.0915 46.104C41.0915 44.632 41.5288 43.4267 42.4035 42.488C43.4062 41.3573 44.8995 40.792 46.8835 40.792C48.8248 40.792 50.3395 41.3573 51.4275 42.488C52.3235 43.4267 52.7715 44.6 52.7715 46.008C52.7715 47.416 52.3128 48.6 51.3955 49.56C50.3075 50.6907 48.8035 51.256 46.8835 51.256Z" fill="#00AAAD"/>
</svg>
