<svg width="56" height="56" viewBox="0 0 56 56" fill="none" xmlns="http://www.w3.org/2000/svg">
<path d="M25.7295 3.50806C26.7953 1.86134 29.2047 1.86134 30.2705 3.50806L34.0587 9.36109C34.6687 10.3037 35.7977 10.7713 36.8956 10.5362L43.7129 9.0761C45.631 8.66533 47.3347 10.369 46.9239 12.2871L45.4638 19.1044C45.2287 20.2023 45.6963 21.3313 46.6389 21.9413L52.4919 25.7295C54.1387 26.7953 54.1387 29.2047 52.4919 30.2705L46.6389 34.0587C45.6963 34.6687 45.2287 35.7977 45.4638 36.8956L46.9239 43.7129C47.3347 45.631 45.631 47.3347 43.7129 46.9239L36.8956 45.4638C35.7977 45.2287 34.6687 45.6963 34.0587 46.6389L30.2705 52.4919C29.2047 54.1387 26.7953 54.1387 25.7295 52.4919L21.9413 46.6389C21.3313 45.6963 20.2023 45.2287 19.1044 45.4638L12.2871 46.9239C10.369 47.3347 8.66533 45.631 9.0761 43.7129L10.5362 36.8956C10.7713 35.7977 10.3037 34.6687 9.36109 34.0587L3.50806 30.2705C1.86134 29.2047 1.86134 26.7953 3.50806 25.7295L9.36109 21.9413C10.3037 21.3313 10.7713 20.2023 10.5362 19.1044L9.07611 12.2871C8.66533 10.369 10.369 8.66533 12.2871 9.0761L19.1044 10.5362C20.2023 10.7713 21.3313 10.3037 21.9413 9.36109L25.7295 3.50806Z" stroke="#FF7074" stroke-width="3.81818"/>
</svg>
