<svg width="54" height="54" viewBox="0 0 54 54" fill="none" xmlns="http://www.w3.org/2000/svg">
<path d="M27 54C41.9117 54 54 41.9117 54 27C54 12.0883 41.9117 0 27 0C12.0883 0 0 12.0883 0 27C0 41.9117 12.0883 54 27 54Z" fill="url(#paint0_linear_146_391)"/>
<path fill-rule="evenodd" clip-rule="evenodd" d="M12.2218 26.715C20.0928 23.2857 25.3415 21.0249 27.9676 19.9326C35.4658 16.8139 37.0238 16.2721 38.0393 16.2542C38.2627 16.2503 38.7621 16.3057 39.0856 16.5682C39.5654 16.9576 39.5682 17.8028 39.5149 18.3622C39.1085 22.6316 37.3504 32.9921 36.4559 37.7738C36.0774 39.7972 35.3321 40.4756 34.6107 40.542C33.0428 40.6863 31.8522 39.5058 30.3335 38.5103C27.9572 36.9526 26.6147 35.9829 24.308 34.4629C21.6423 32.7062 23.3704 31.7407 24.8896 30.1628C25.2872 29.7499 32.1955 23.4662 32.3292 22.8961C32.346 22.8248 32.3615 22.559 32.2036 22.4188C32.0457 22.2785 31.8127 22.3264 31.6446 22.3645C31.4063 22.4187 27.61 24.9279 20.2559 29.8921C19.1783 30.632 18.2023 30.9925 17.3279 30.9736C16.3638 30.9529 14.5094 30.4286 13.1309 29.9804C11.44 29.4309 10.0961 29.1402 10.2132 28.2068C10.2741 27.7205 10.9436 27.2233 12.2218 26.715Z" fill="white"/>
<defs>
<linearGradient id="paint0_linear_146_391" x1="27" y1="0" x2="27" y2="53.5781" gradientUnits="userSpaceOnUse">
<stop stop-color="#2AABEE"/>
<stop offset="1" stop-color="#229ED9"/>
</linearGradient>
</defs>
</svg>
