<svg width="58" height="58" viewBox="0 0 58 58" fill="none" xmlns="http://www.w3.org/2000/svg">
<path d="M28.4597 17.4735V28.8521L34.1491 34.5414" stroke="#FF7074" stroke-width="6" stroke-linecap="round" stroke-linejoin="round"/>
<path d="M3 26.0075C3.63746 19.7494 6.55657 13.945 11.2004 9.70179C15.8442 5.45857 21.8876 3.07352 28.1777 3.00167C34.4677 2.92983 40.5641 5.17622 45.3036 9.31227C50.0431 13.4483 53.0941 19.1845 53.8743 25.4264C54.6545 31.6683 53.1095 37.9789 49.5339 43.1544C45.9583 48.3298 40.6025 52.0077 34.4883 53.4864C28.3741 54.9651 21.9295 54.141 16.3841 51.1715C10.8387 48.2019 6.58063 43.2947 4.42233 37.3861M3 51.6093V37.3861H17.2233" stroke="#FF7074" stroke-width="6" stroke-linecap="round" stroke-linejoin="round"/>
</svg>
