<svg width="54" height="60" viewBox="0 0 54 60" fill="none" xmlns="http://www.w3.org/2000/svg">
<path d="M33 0H21C9.42 0 0 9.42 0 21V30C0 38.1375 4.6875 45.51 12 48.9825V59.01C12 59.88 13.0875 60.33 13.7025 59.715L22.4175 51.0075H33C44.58 51.0075 54 41.5875 54 30V21C54 9.42 44.58 0 33 0ZM40.86 39.3607L37.8225 42.3307C34.6275 45.4583 26.2875 41.8882 18.9375 34.3807C11.5875 26.8657 8.3625 18.4508 11.4 15.3232L14.4375 12.3533C15.555 11.2583 17.4525 11.2808 18.705 12.3983L23.085 16.8757C24.645 18.4732 23.985 21.1507 21.9225 21.7658C20.4975 22.2232 19.53 23.7907 19.9875 25.2157C20.745 28.5457 24.9675 32.7082 28.1175 33.5332C29.535 33.8633 31.125 33.0907 31.62 31.6732C32.2725 29.6257 34.965 29.0183 36.5325 30.6233L40.905 35.0933C42 36.21 41.985 38.1082 40.86 39.3607ZM29.73 14.25C29.43 14.25 29.13 14.265 28.8375 14.3025C28.29 14.3625 27.795 13.965 27.735 13.4175C27.675 12.87 28.0725 12.375 28.62 12.315C28.9875 12.27 29.3625 12.255 29.73 12.255C35.2425 12.255 39.7275 16.74 39.7275 22.2525C39.7275 22.62 39.7125 22.995 39.6675 23.3625C39.6075 23.9025 39.105 24.3075 38.565 24.2475C38.025 24.1875 37.62 23.685 37.68 23.145C37.71 22.8525 37.7325 22.5525 37.7325 22.2525C37.7325 17.8425 34.14 14.25 29.73 14.25ZM35.73 22.2525C35.73 22.8 35.2725 23.25 34.725 23.25C34.185 23.25 33.7275 22.8 33.7275 22.2525C33.7275 20.0475 31.935 18.255 29.73 18.255C29.175 18.255 28.725 17.805 28.725 17.25C28.725 16.7025 29.175 16.2525 29.73 16.2525C33.0375 16.2525 35.73 18.945 35.73 22.2525ZM43.3575 25.485C43.23 26.025 42.6525 26.3625 42.12 26.22C41.6025 26.0775 41.2875 25.5375 41.4075 25.02C41.625 24.12 41.73 23.19 41.73 22.2525C41.73 15.6375 36.345 10.2525 29.73 10.2525C29.4225 10.2525 29.1075 10.26 28.8 10.29C28.2525 10.3275 27.7725 9.915 27.7275 9.3675C27.69 8.8125 28.1025 8.3325 28.65 8.295C29.01 8.265 29.37 8.25 29.73 8.25C37.4475 8.25 43.7325 14.535 43.7325 22.2525C43.7325 23.34 43.605 24.4275 43.3575 25.485Z" fill="#665CAC"/>
</svg>
